<?xml version="1.0" encoding="UTF-8"?><svg xmlns="http://www.w3.org/2000/svg" xmlns:xlink="http://www.w3.org/1999/xlink" contentScriptType="text/ecmascript" width="375" zoomAndPan="magnify" contentStyleType="text/css" viewBox="0 0 375 374.999991" height="374.999991" preserveAspectRatio="xMidYMid meet" version="1.0"><defs><clipPath id="clip-0"><path d="M 105 57.8125 L 368.109375 57.8125 L 368.109375 330.0625 L 105 330.0625 Z M 105 57.8125 " clip-rule="nonzero"/></clipPath></defs><path fill="rgb(83.918762%, 91.758728%, 94.898987%)" d="M 248.414062 195.5 C 248.773438 194.898438 248.578125 194.117188 247.976562 193.757812 L 191.554688 159.921875 L 184.414062 154.199219 C 183.816406 153.84375 182.339844 154.097656 181.980469 154.691406 L 180.777344 155.734375 C 180.414062 156.332031 180.558594 158.027344 181.160156 158.386719 L 188.6875 161.148438 L 246.683594 195.929688 C 247.28125 196.289062 248.054688 196.097656 248.414062 195.5 Z M 138.09375 317.292969 L 61.433594 317.292969 C 51.910156 318.980469 42.390625 317.324219 32.554688 310.472656 C 22.019531 303.144531 21.382812 293.347656 25.101562 284.140625 C 25.101562 284.140625 27.480469 269.976562 35.570312 254.183594 C 47.417969 231.039062 50.171875 213.007812 55.539062 199 C 68.191406 165.953125 119.757812 158.039062 119.757812 158.039062 L 170.476562 158.039062 L 188.957031 170.804688 C 210.351562 185.75 213.746094 192.152344 217.90625 209.1875 C 224.417969 235.867188 240.605469 317.292969 240.605469 317.292969 L 138.09375 317.292969 " fill-opacity="1" fill-rule="nonzero"/><path fill="rgb(91.369629%, 54.899597%, 40.779114%)" d="M 302.964844 249.890625 L 297.546875 249.070312 C 298.117188 241.101562 299.769531 227.988281 304.503906 219.382812 C 311.695312 206.308594 334.625 170.683594 305.722656 159.324219 C 281.652344 149.867188 267.472656 161.144531 257.980469 177.421875 C 257.980469 177.421875 246.472656 181.769531 241.851562 184.53125 C 238.160156 186.734375 243.710938 193.03125 243.710938 193.03125 C 243.710938 193.03125 235.902344 208.542969 234.246094 212.785156 C 232.589844 217.03125 222.511719 238.667969 255.144531 232.785156 L 250.65625 247.40625 L 237.488281 250.558594 C 237.488281 250.558594 234.585938 268.070312 246.480469 271.339844 C 250.011719 274.554688 265.15625 265.550781 273.585938 266.644531 C 294.304688 269.332031 316.660156 266.949219 316.660156 266.949219 L 302.976562 250.152344 C 302.980469 249.980469 302.964844 249.890625 302.964844 249.890625 Z M 201.152344 101.042969 C 201.050781 108.714844 197.585938 117.402344 197.585938 117.402344 L 170.46875 154.636719 C 170.46875 154.636719 173.671875 177.136719 154.96875 177.136719 C 131.5625 177.136719 117.535156 158.441406 117.535156 158.441406 L 126.007812 137.777344 L 123.050781 112.953125 C 123.050781 112.953125 139.464844 123.078125 161.769531 103.011719 C 175.8125 90.382812 201.265625 92.058594 201.152344 101.042969 " fill-opacity="1" fill-rule="nonzero"/><path fill="rgb(65.489197%, 73.728943%, 86.268616%)" d="M 195.011719 227.492188 C 195.011719 214.578125 192.1875 206.109375 192.1875 206.109375 L 191.183594 197.914062 L 184.863281 197.914062 L 184.863281 210.785156 L 169.265625 200.464844 L 106.015625 221.6875 C 96.28125 224.957031 88.332031 232.113281 84.058594 241.457031 L 84.019531 241.542969 C 119.929688 225.398438 166.894531 205.542969 166.894531 205.542969 C 166.894531 205.542969 172.035156 207.875 176.296875 212.714844 C 180.167969 217.113281 183.109375 229.039062 183.109375 229.039062 C 183.109375 229.039062 169.683594 250.703125 145.6875 264.746094 C 123.910156 277.488281 113.601562 287.234375 103.949219 294.367188 C 89.113281 305.324219 75.265625 314.839844 61.433594 317.292969 L 107.316406 317.292969 L 107.203125 317.390625 L 148.328125 317.390625 C 158.445312 300.46875 186.914062 281.78125 186.914062 281.78125 L 191.132812 271.339844 C 191.132812 271.339844 154.652344 301.824219 147.058594 296.550781 C 139.46875 291.277344 152.03125 278.488281 152.03125 278.488281 L 151.855469 278.640625 C 157.089844 273.929688 162.566406 269.988281 167.9375 267.75 C 190.714844 258.257812 195.011719 241.167969 195.011719 227.492188 Z M 104.046875 173.9375 C 106.773438 175.878906 110.289062 175.585938 113.558594 175.851562 C 121.804688 176.515625 129.195312 180.980469 136.234375 185.320312 C 136.890625 185.726562 137.554688 186.144531 138.199219 186.585938 C 139.027344 187.15625 139.957031 186.011719 139.230469 185.320312 C 139.039062 185.132812 138.84375 184.953125 138.652344 184.777344 C 134.199219 180.726562 129.6875 176.628906 124.367188 173.804688 C 122.007812 172.558594 119.5 171.5625 117.277344 170.078125 C 116.011719 169.234375 114.820312 168.1875 113.921875 166.960938 C 112.757812 165.382812 110.644531 164.859375 108.945312 165.832031 C 107.515625 166.640625 106.003906 167.550781 105.121094 168.226562 C 103.683594 169.332031 102.054688 170.855469 102.992188 172.773438 C 103.230469 173.246094 103.617188 173.628906 104.046875 173.9375 Z M 197.46875 271.339844 C 197.894531 266.277344 204.3125 255.671875 203.996094 243.492188 C 203.679688 231.304688 203.046875 227.351562 203.996094 226.398438 C 204.945312 225.453125 206.050781 226.878906 206.371094 230.832031 C 206.683594 234.785156 210.003906 269.757812 210.003906 269.757812 L 197.46875 271.339844 " fill-opacity="1" fill-rule="nonzero"/><path fill="rgb(17.649841%, 30.589294%, 46.269226%)" d="M 322.351562 163.976562 C 314.96875 160.601562 301.265625 152.160156 293.640625 147.050781 C 286.019531 141.9375 272.585938 143.300781 266.625 148.148438 C 260.660156 153.003906 263.726562 163.132812 270.664062 163.515625 C 277.597656 163.898438 285.949219 172.136719 285.949219 179.535156 C 285.949219 183.867188 281.296875 193.285156 277.71875 199.882812 L 246.597656 204.496094 L 246.839844 206.109375 L 276.734375 201.683594 C 276.082031 202.859375 275.492188 203.902344 275.003906 204.742188 C 274.328125 205.929688 274.910156 207.441406 276.210938 207.859375 L 279.382812 208.882812 C 280.265625 209.167969 281.230469 208.859375 281.777344 208.109375 L 287.582031 200.160156 L 291.765625 195.820312 C 291.765625 195.820312 295.550781 193 300.183594 194.0625 C 304.816406 195.121094 303.132812 203.824219 299.058594 208.316406 C 296.0625 211.628906 291.265625 212.644531 288.9375 212.949219 C 288.933594 212.9375 288.933594 212.925781 288.929688 212.914062 L 246.480469 225.925781 L 246.953125 227.492188 L 287.839844 214.949219 C 288.242188 214.832031 288.554688 214.566406 288.757812 214.230469 C 288.613281 215.535156 288.488281 217.59375 288.722656 219.898438 C 286.988281 233.539062 293.414062 238.914062 300.386719 238.914062 C 325.933594 238.914062 320.667969 212.078125 330.152344 197.125 C 339.644531 182.171875 329.734375 167.351562 322.351562 163.976562 Z M 186.648438 112.355469 C 186.320312 113.054688 186.621094 113.890625 187.320312 114.222656 C 188.015625 114.550781 188.855469 114.25 189.183594 113.550781 C 189.515625 112.851562 189.210938 112.015625 188.515625 111.6875 C 187.816406 111.355469 186.980469 111.652344 186.648438 112.355469 Z M 173.136719 124.082031 L 161.910156 114.640625 C 161.464844 114.988281 161.015625 115.335938 160.578125 115.65625 L 171.796875 125.089844 C 171.226562 125.570312 170.6875 126.078125 170.195312 126.621094 C 165.71875 131.535156 163.523438 137.019531 162.460938 140.863281 L 151.941406 120.945312 C 151.4375 121.1875 150.941406 121.410156 150.453125 121.621094 L 161.882812 143.273438 C 161.566406 144.859375 161.492188 145.828125 161.492188 145.828125 C 162.007812 151.714844 165.847656 155.105469 171.929688 160.625 C 174.902344 163.328125 181.941406 163.617188 188.6875 161.148438 L 182.8125 157.628906 C 182.210938 157.265625 182.015625 156.484375 182.375 155.886719 C 182.734375 155.289062 183.511719 155.097656 184.105469 155.457031 L 191.554688 159.921875 C 196.125 157.652344 200.25 154.019531 202.460938 148.90625 C 209.597656 132.398438 197.585938 117.402344 197.585938 117.402344 C 197.585938 117.402344 182.113281 117.816406 173.136719 124.082031 Z M 262.699219 175.832031 C 265.964844 177.054688 268.824219 178.769531 270.898438 181.359375 C 271.695312 182.355469 272.261719 183.511719 273.019531 184.535156 C 273.097656 184.644531 273.1875 184.753906 273.3125 184.789062 C 273.449219 184.824219 273.59375 184.761719 273.710938 184.683594 C 274.195312 184.351562 274.394531 183.710938 274.347656 183.128906 C 274.300781 182.542969 274.042969 182 273.765625 181.480469 C 271.585938 177.402344 268.464844 174.019531 263.875 173.507812 C 263.34375 173.453125 262.972656 173.558594 262.621094 174.144531 L 262.25 174.800781 C 262.003906 175.429688 262.296875 175.683594 262.699219 175.832031 Z M 181.492188 109.097656 C 182.082031 109.382812 182.761719 109.453125 183.425781 109.503906 C 186.414062 109.726562 189.449219 109.644531 192.367188 110.320312 C 192.53125 110.359375 192.695312 110.402344 192.867188 110.390625 C 193.355469 110.363281 193.714844 109.886719 193.691406 109.425781 C 193.671875 108.96875 193.355469 108.554688 192.976562 108.257812 C 192.054688 107.535156 190.785156 107.382812 189.59375 107.257812 C 187.074219 106.996094 184.554688 106.738281 182.035156 106.476562 L 181.144531 106.601562 C 180.722656 106.785156 180.445312 107.203125 180.429688 107.636719 C 180.414062 108.25 180.902344 108.808594 181.492188 109.097656 Z M 261.429688 181.539062 C 261.429688 180.585938 262.203125 179.804688 263.160156 179.804688 C 264.117188 179.804688 264.890625 180.585938 264.890625 181.539062 C 264.890625 182.496094 264.117188 183.269531 263.160156 183.269531 C 262.203125 183.269531 261.429688 182.496094 261.429688 181.539062 " fill-opacity="1" fill-rule="nonzero"/><g clip-path="url(#clip-0)"><path fill="rgb(8.628845%, 16.079712%, 25.878906%)" d="M 189.0625 139.214844 C 185.777344 139.214844 183.109375 141.882812 183.109375 145.167969 C 183.109375 148.457031 185.777344 151.121094 189.0625 151.121094 C 192.34375 151.121094 195.011719 148.457031 195.011719 145.167969 C 195.011719 141.882812 192.34375 139.214844 189.0625 139.214844 Z M 229.878906 226.429688 C 230.296875 227.691406 237.878906 235.695312 237.878906 235.695312 L 250.632812 232.085938 C 251.707031 231.78125 252.207031 230.542969 251.644531 229.578125 L 246.15625 220.113281 C 246.15625 220.113281 246.71875 209.722656 247.839844 207.898438 C 248.53125 206.777344 250.222656 204.277344 251.429688 202.519531 C 252.15625 201.453125 251.886719 200.003906 250.820312 199.273438 L 243.199219 194.0625 C 243.199219 194.0625 236.054688 203.542969 233.527344 206.492188 C 231 209.441406 230.859375 214.777344 229.878906 218.988281 C 228.898438 223.199219 229.457031 225.167969 229.878906 226.429688 Z M 361.21875 301.375 C 356.351562 279.121094 351.46875 263.679688 338.402344 257.722656 C 328.726562 253.304688 311.339844 250.945312 302.976562 250.023438 C 303.007812 251.1875 302.453125 259.949219 278.648438 261.527344 C 253.132812 263.214844 237.488281 250.558594 237.488281 250.558594 C 225.289062 251.726562 207.257812 253.992188 198.007812 257.722656 C 183.222656 263.679688 173.882812 279.121094 162.601562 301.375 C 151.320312 323.632812 147.429688 330.09375 147.429688 330.09375 L 368.109375 330.09375 C 368.109375 330.09375 366.082031 323.632812 361.21875 301.375 Z M 196.761719 164.855469 L 181.949219 171.359375 C 179.699219 172.34375 177.957031 174.21875 177.140625 176.539062 L 166.894531 205.542969 C 166.894531 205.542969 172.035156 207.875 176.296875 212.714844 C 178.710938 215.457031 180.761719 221.117188 181.964844 225 C 184.558594 224.523438 188.804688 222.808594 191.5625 216.894531 C 195.773438 207.878906 203.058594 198.453125 203.058594 198.453125 L 214.921875 197.101562 C 214.921875 197.101562 221.53125 199.355469 224.539062 199.804688 C 227.542969 200.257812 228.140625 196.203125 228.140625 195.148438 C 228.140625 194.097656 222.585938 180.871094 222.585938 180.871094 C 222.585938 180.871094 225.8125 182.222656 227.015625 182.75 C 228.21875 183.273438 230.09375 182.675781 230.46875 181.246094 C 230.847656 179.820312 231.296875 178.089844 222.660156 173.507812 C 217.453125 170.746094 210.90625 167.378906 206.527344 165.140625 C 203.480469 163.585938 199.898438 163.480469 196.761719 164.855469 Z M 166.636719 110.691406 C 144.328125 130.757812 132.320312 122.386719 132.320312 122.386719 L 126.007812 137.777344 L 120.84375 138.550781 C 120.84375 138.550781 110.816406 139.640625 107.15625 132.054688 C 103.496094 124.46875 105.324219 111.90625 110.027344 107.789062 C 114.726562 103.667969 111.71875 86.480469 121.539062 79.742188 C 131.367188 73.003906 143.574219 59.824219 154.207031 58.152344 C 164.835938 56.476562 186.675781 60.792969 192.726562 73.785156 C 198.777344 86.78125 205.871094 85.75 204.570312 99.800781 C 203.964844 106.316406 202.125 113.238281 198.582031 118.800781 C 197.976562 117.898438 197.585938 117.402344 197.585938 117.402344 C 197.585938 117.402344 198.363281 114.144531 198.460938 106.476562 C 198.578125 97.492188 180.675781 98.066406 166.636719 110.691406 " fill-opacity="1" fill-rule="nonzero"/></g></svg>