<?xml version="1.0" encoding="UTF-8"?><svg xmlns="http://www.w3.org/2000/svg" xmlns:xlink="http://www.w3.org/1999/xlink" contentScriptType="text/ecmascript" width="375" zoomAndPan="magnify" contentStyleType="text/css" viewBox="0 0 375 374.999991" height="374.999991" preserveAspectRatio="xMidYMid meet" version="1.0"><defs><clipPath id="clip-0"><path d="M 51.21875 256 L 333 256 L 333 355 L 51.21875 355 Z M 51.21875 256 " clip-rule="nonzero"/></clipPath><clipPath id="clip-1"><path d="M 51.21875 256 L 164 256 L 164 355 L 51.21875 355 Z M 51.21875 256 " clip-rule="nonzero"/></clipPath><clipPath id="clip-2"><path d="M 108 322 L 142 322 L 142 355.105469 L 108 355.105469 Z M 108 322 " clip-rule="nonzero"/></clipPath></defs><path fill="rgb(20.779419%, 12.159729%, 9.01947%)" d="M 124.019531 68.652344 C 124.019531 68.652344 78.96875 144.832031 114.980469 231.304688 C 114.980469 231.304688 119.015625 248.972656 108.582031 258.640625 L 163.125 254.886719 L 163.125 104.152344 L 124.019531 68.652344 " fill-opacity="1" fill-rule="nonzero"/><path fill="rgb(20.779419%, 12.159729%, 9.01947%)" d="M 270.105469 64.65625 C 270.105469 64.65625 306.566406 144.832031 270.550781 231.304688 C 270.550781 231.304688 266.519531 248.972656 276.964844 258.640625 L 222.410156 254.886719 L 222.410156 104.152344 L 270.105469 64.65625 " fill-opacity="1" fill-rule="nonzero"/><path fill="rgb(92.549133%, 68.238831%, 57.649231%)" d="M 163.546875 269.503906 L 221.988281 269.503906 L 221.988281 225.613281 L 163.546875 225.613281 Z M 163.546875 269.503906 " fill-opacity="1" fill-rule="nonzero"/><path fill="rgb(76.469421%, 56.079102%, 47.44873%)" d="M 192.132812 256.753906 L 163.546875 256.753906 L 163.546875 231.894531 C 174.242188 240.429688 184.707031 244.9375 192.085938 244.996094 L 192.085938 245.011719 L 192.183594 244.996094 L 192.246094 245.011719 L 192.246094 244.996094 C 199.167969 244.941406 208.792969 240.980469 218.789062 233.457031 C 215.371094 239.386719 210.992188 244.539062 205.652344 248.945312 C 201.648438 252.261719 197.046875 254.949219 192.132812 256.753906 " fill-opacity="1" fill-rule="nonzero"/><path fill="rgb(92.549133%, 68.238831%, 57.649231%)" d="M 265.140625 133.824219 C 265.140625 79.753906 232.695312 48.679688 192.582031 48.421875 C 192.488281 48.421875 192.359375 48.421875 192.246094 48.421875 L 192.085938 48.421875 C 191.988281 48.421875 191.863281 48.421875 191.75 48.421875 C 151.65625 48.679688 119.210938 79.753906 119.210938 133.824219 C 119.210938 203.933594 169.75 244.820312 192.085938 244.996094 L 192.085938 245.011719 L 192.183594 244.996094 L 192.246094 245.011719 L 192.246094 244.996094 C 214.582031 244.820312 265.140625 203.933594 265.140625 133.824219 " fill-opacity="1" fill-rule="nonzero"/><path fill="rgb(92.549133%, 68.238831%, 57.649231%)" d="M 257.941406 153.824219 L 253.785156 185.703125 C 270.152344 192.894531 272.710938 155.390625 272.710938 155.390625 C 268.933594 146.046875 257.941406 153.824219 257.941406 153.824219 " fill-opacity="1" fill-rule="nonzero"/><path fill="rgb(92.549133%, 68.238831%, 57.649231%)" d="M 113.476562 155.390625 C 113.476562 155.390625 116.039062 192.894531 132.40625 185.703125 L 128.246094 153.824219 C 128.246094 153.824219 117.253906 146.046875 113.476562 155.390625 " fill-opacity="1" fill-rule="nonzero"/><g clip-path="url(#clip-0)"><path fill="rgb(92.549133%, 68.238831%, 57.649231%)" d="M 163.320312 256.753906 L 93.03125 278.46875 C 93.03125 278.46875 68.425781 282.847656 62.152344 308.394531 L 51.382812 354.761719 L 332.964844 354.761719 L 322.199219 308.394531 C 315.925781 282.847656 291.316406 278.46875 291.316406 278.46875 L 221.015625 256.753906 L 163.320312 256.753906 " fill-opacity="1" fill-rule="nonzero"/><path fill="rgb(26.669312%, 75.289917%, 74.508667%)" d="M 163.320312 256.753906 L 93.03125 278.46875 C 93.03125 278.46875 68.425781 282.847656 62.152344 308.394531 L 51.382812 354.761719 L 332.964844 354.761719 L 322.199219 308.394531 C 315.925781 282.847656 291.316406 278.46875 291.316406 278.46875 L 221.015625 256.753906 L 192.757812 318.398438 L 163.320312 256.753906 " fill-opacity="1" fill-rule="nonzero"/></g><path fill="rgb(21.569824%, 12.548828%, 9.01947%)" d="M 247.175781 99.855469 C 247.175781 99.855469 266.101562 213.503906 236.132812 251.898438 C 236.132812 251.898438 267.574219 221.910156 256.582031 109.265625 L 247.175781 99.855469 " fill-opacity="1" fill-rule="nonzero"/><path fill="rgb(21.569824%, 12.548828%, 9.01947%)" d="M 132.777344 99.855469 C 132.777344 99.855469 113.84375 213.503906 143.796875 251.898438 C 143.796875 251.898438 112.375 221.910156 123.367188 109.265625 L 132.777344 99.855469 " fill-opacity="1" fill-rule="nonzero"/><g clip-path="url(#clip-1)"><path fill="rgb(89.019775%, 89.408875%, 87.449646%)" d="M 163.320312 256.753906 L 163.546875 354.761719 L 51.382812 354.761719 L 62.152344 308.394531 C 68.425781 282.847656 93.03125 278.46875 93.03125 278.46875 L 163.320312 256.753906 " fill-opacity="1" fill-rule="nonzero"/></g><path fill="rgb(17.248535%, 48.239136%, 48.629761%)" d="M 182.167969 296.953125 C 176.03125 293.753906 169.816406 292.5625 163.945312 292.5625 C 163.761719 292.5625 163.582031 292.5625 163.402344 292.566406 L 163.375 282.582031 C 176.414062 282.703125 182.167969 296.953125 182.167969 296.953125 " fill-opacity="1" fill-rule="nonzero"/><path fill="rgb(58.428955%, 57.649231%, 56.858826%)" d="M 132.40625 302.929688 C 145.382812 287.464844 155.546875 282.582031 163.214844 282.582031 C 163.269531 282.582031 163.324219 282.582031 163.375 282.582031 L 163.402344 292.566406 C 146.355469 292.78125 132.40625 302.929688 132.40625 302.929688 " fill-opacity="1" fill-rule="nonzero"/><path fill="rgb(23.919678%, 66.668701%, 65.879822%)" d="M 184.265625 300.613281 C 184.265625 300.613281 172.394531 270.734375 132.40625 302.929688 L 146.679688 261.898438 L 163.320312 256.753906 L 184.265625 300.613281 " fill-opacity="1" fill-rule="nonzero"/><path fill="rgb(89.019775%, 89.408875%, 87.449646%)" d="M 221.253906 256.753906 L 221.988281 354.761719 L 332.964844 354.761719 L 322.199219 308.394531 C 315.925781 282.847656 291.316406 278.46875 291.316406 278.46875 L 221.015625 256.753906 L 221.253906 256.753906 " fill-opacity="1" fill-rule="nonzero"/><path fill="rgb(17.248535%, 48.239136%, 48.629761%)" d="M 203.398438 295.199219 L 203.882812 294.15625 C 205.132812 291.808594 209.007812 286.300781 217.902344 286.300781 C 219.015625 286.300781 220.207031 286.386719 221.476562 286.574219 L 221.484375 287.148438 C 221.027344 288.40625 220.613281 289.710938 220.234375 291.070312 C 214.820312 291.082031 209.097656 292.222656 203.398438 295.199219 " fill-opacity="1" fill-rule="nonzero"/><path fill="rgb(58.428955%, 57.649231%, 56.858826%)" d="M 251.945312 302.753906 C 250.359375 301.496094 240.425781 293.976562 227.535156 291.714844 C 227.875 290.570312 228.238281 289.492188 228.628906 288.480469 C 234.859375 290.800781 242.53125 295.203125 251.945312 302.753906 M 221.484375 287.148438 L 221.476562 286.574219 C 221.546875 286.585938 221.617188 286.597656 221.683594 286.605469 C 221.617188 286.785156 221.550781 286.964844 221.484375 287.148438 " fill-opacity="1" fill-rule="nonzero"/><path fill="rgb(60.389709%, 43.919373%, 36.859131%)" d="M 203.738281 294.4375 C 203.761719 294.382812 203.789062 294.328125 203.820312 294.269531 L 203.777344 294.355469 C 203.765625 294.382812 203.75 294.410156 203.738281 294.4375 " fill-opacity="1" fill-rule="nonzero"/><path fill="rgb(17.248535%, 48.239136%, 48.629761%)" d="M 203.777344 294.355469 L 203.820312 294.269531 C 203.871094 294.15625 203.929688 294.039062 203.996094 293.914062 L 203.882812 294.15625 C 203.847656 294.226562 203.8125 294.289062 203.777344 294.355469 " fill-opacity="1" fill-rule="nonzero"/><path fill="rgb(23.919678%, 66.668701%, 65.879822%)" d="M 203.398438 295.199219 C 203.398438 295.199219 212.179688 270.734375 252.167969 302.929688 L 237.894531 261.898438 L 221.253906 256.753906 L 203.398438 295.199219 " fill-opacity="1" fill-rule="nonzero"/><path fill="rgb(20.779419%, 12.159729%, 9.01947%)" d="M 163.546875 79.785156 C 163.546875 79.785156 139.511719 87.996094 132.40625 116.410156 C 132.40625 116.410156 131.078125 135.789062 120.214844 150.792969 C 120.214844 150.792969 115.175781 147.964844 113.476562 155.390625 C 113.476562 155.390625 93.832031 51.523438 167.03125 40.226562 L 163.546875 79.785156 " fill-opacity="1" fill-rule="nonzero"/><path fill="rgb(16.468811%, 9.408569%, 6.669617%)" d="M 265.140625 150.792969 C 264.804688 150.757812 264.476562 150.726562 264.140625 150.695312 C 264.144531 150.671875 264.144531 150.644531 264.148438 150.621094 C 264.476562 150.683594 264.808594 150.738281 265.140625 150.792969 " fill-opacity="1" fill-rule="nonzero"/><path fill="rgb(68.629456%, 50.19989%, 42.349243%)" d="M 264.140625 150.695312 C 262.363281 150.523438 260.609375 150.328125 258.890625 150.121094 C 258.886719 149.828125 258.882812 149.527344 258.882812 149.230469 C 260.53125 149.804688 262.289062 150.277344 264.148438 150.621094 C 264.144531 150.644531 264.144531 150.671875 264.140625 150.695312 " fill-opacity="1" fill-rule="nonzero"/><path fill="rgb(16.859436%, 9.408569%, 6.669617%)" d="M 258.890625 150.121094 C 258.042969 150.019531 257.207031 149.910156 256.367188 149.800781 C 256.28125 149.210938 256.175781 148.648438 256.058594 148.105469 C 256.960938 148.511719 257.902344 148.890625 258.882812 149.230469 C 258.882812 149.527344 258.886719 149.828125 258.890625 150.121094 " fill-opacity="1" fill-rule="nonzero"/><path fill="rgb(68.629456%, 50.19989%, 42.349243%)" d="M 212.019531 138.261719 C 164.113281 117.953125 158.34375 82.246094 158.34375 82.246094 C 158.617188 82.242188 158.882812 82.242188 159.160156 82.242188 C 159.265625 82.242188 159.375 82.242188 159.480469 82.242188 C 162.621094 90.003906 177.816406 120.679688 226.421875 136.15625 C 220.292969 136.460938 215.597656 137.195312 212.019531 138.261719 M 241.472656 136.1875 C 240.039062 136.027344 238.550781 135.953125 237.023438 135.925781 C 235.367188 132.945312 233.726562 128.460938 234.664062 123.34375 C 234.664062 123.34375 236.507812 129.59375 241.472656 136.1875 " fill-opacity="1" fill-rule="nonzero"/><path fill="rgb(20.779419%, 12.159729%, 9.01947%)" d="M 158.804688 80.425781 C 158.804688 80.425781 172.308594 124.238281 239.71875 139.785156 C 239.71875 139.785156 232.964844 132.609375 234.664062 123.34375 C 234.664062 123.34375 241.671875 147.101562 265.140625 150.792969 C 265.140625 150.792969 268.96875 150.871094 270.105469 151.894531 C 270.105469 151.894531 282.710938 115.785156 271.925781 72.851562 C 271.925781 72.851562 262.46875 19.839844 199.894531 21.722656 C 199.894531 21.722656 151.863281 20.636719 153.125 58.105469 L 158.804688 80.425781 " fill-opacity="1" fill-rule="nonzero"/><path fill="rgb(74.119568%, 73.728943%, 74.119568%)" d="M 276.964844 258.640625 L 276.34375 258.609375 C 276.332031 258.605469 276.328125 258.601562 276.320312 258.59375 L 276.964844 258.640625 M 269.636719 65.042969 C 269.632812 65.039062 269.632812 65.035156 269.628906 65.03125 L 270.105469 64.65625 L 269.636719 65.042969 " fill-opacity="1" fill-rule="nonzero"/><path fill="rgb(16.468811%, 9.408569%, 6.669617%)" d="M 276.964844 258.640625 L 276.320312 258.59375 C 265.738281 253.019531 257.476562 243.339844 254.519531 230.121094 C 251.296875 215.53125 257.8125 199.96875 261.757812 185.488281 C 271.039062 179.886719 272.710938 155.390625 272.710938 155.390625 C 272.035156 153.726562 271.132812 152.605469 270.105469 151.886719 C 270.316406 151.273438 282.617188 115.417969 271.925781 72.851562 C 271.925781 72.851562 271.371094 69.738281 269.636719 65.042969 L 270.105469 64.65625 C 270.105469 64.65625 286.445312 100.585938 286.441406 150.28125 C 286.441406 174.820312 282.457031 202.71875 270.550781 231.304688 C 270.550781 231.304688 269.785156 234.65625 269.785156 239.238281 C 269.785156 245.175781 271.070312 253.183594 276.964844 258.640625 M 270.042969 151.839844 C 269.898438 151.746094 269.753906 151.65625 269.601562 151.570312 C 269.769531 151.652344 269.917969 151.742188 270.042969 151.839844 " fill-opacity="1" fill-rule="nonzero"/><path fill="rgb(68.629456%, 50.19989%, 42.349243%)" d="M 261.757812 185.488281 C 262.359375 183.285156 262.898438 181.105469 263.335938 178.960938 C 265.222656 169.730469 266.195312 160.304688 266.375 150.867188 C 267.367188 150.957031 268.742188 151.152344 269.601562 151.570312 C 269.753906 151.65625 269.898438 151.746094 270.042969 151.839844 C 270.0625 151.859375 270.082031 151.875 270.105469 151.894531 C 270.105469 151.894531 270.105469 151.894531 270.105469 151.886719 C 271.132812 152.605469 272.035156 153.726562 272.710938 155.390625 C 272.710938 155.390625 271.039062 179.886719 261.757812 185.488281 " fill-opacity="1" fill-rule="nonzero"/><path fill="rgb(74.119568%, 73.728943%, 74.119568%)" d="M 262.082031 50.304688 C 252.8125 36.582031 235.328125 21.675781 203.128906 21.675781 C 202.0625 21.675781 200.992188 21.691406 199.894531 21.722656 C 201 21.691406 202.078125 21.671875 203.148438 21.671875 C 235.351562 21.671875 252.824219 36.585938 262.082031 50.304688 " fill-opacity="1" fill-rule="nonzero"/><path fill="rgb(16.468811%, 9.408569%, 6.669617%)" d="M 270.105469 151.894531 C 270.082031 151.875 270.0625 151.859375 270.042969 151.839844 C 269.917969 151.742188 269.769531 151.652344 269.601562 151.570312 C 268.742188 151.152344 267.367188 150.957031 266.375 150.867188 C 266.527344 142.484375 266.066406 134.089844 265.0625 125.804688 C 262.953125 108.195312 257.015625 91.976562 250.234375 75.699219 C 244.550781 62.085938 238.132812 46.21875 224.390625 38.980469 C 218.109375 35.664062 210.5625 34.355469 202.996094 34.355469 C 196.492188 34.355469 189.980469 35.324219 184.246094 36.808594 C 172.726562 39.761719 164.96875 48.265625 161 59.128906 C 159.03125 64.511719 158.167969 70.328125 157.722656 76.128906 L 153.125 58.105469 C 153.113281 57.621094 153.101562 57.144531 153.101562 56.671875 C 153.101562 53.945312 153.367188 51.433594 153.867188 49.113281 C 157.84375 46.238281 161.902344 43.460938 165.816406 40.449219 C 162.304688 41.050781 159.015625 41.867188 155.929688 42.875 C 165.386719 22.390625 195.578125 21.722656 199.480469 21.722656 C 199.75 21.722656 199.894531 21.722656 199.894531 21.722656 C 200.992188 21.691406 202.0625 21.675781 203.128906 21.675781 C 235.328125 21.675781 252.8125 36.582031 262.082031 50.304688 C 265.746094 55.734375 268.125 60.976562 269.621094 65.039062 L 269.628906 65.03125 C 269.632812 65.035156 269.632812 65.039062 269.636719 65.042969 C 271.371094 69.738281 271.925781 72.851562 271.925781 72.851562 C 282.617188 115.417969 270.316406 151.273438 270.105469 151.886719 C 270.105469 151.894531 270.105469 151.894531 270.105469 151.894531 " fill-opacity="1" fill-rule="nonzero"/><path fill="rgb(74.119568%, 73.728943%, 74.119568%)" d="M 108.582031 258.640625 L 136.488281 256.71875 C 136.488281 256.71875 136.488281 256.722656 136.488281 256.722656 L 108.582031 258.640625 " fill-opacity="1" fill-rule="nonzero"/><path fill="rgb(16.468811%, 9.408569%, 6.669617%)" d="M 108.582031 258.640625 C 114.464844 253.191406 115.75 245.191406 115.75 239.253906 C 115.75 234.664062 114.980469 231.304688 114.980469 231.304688 C 85.957031 161.605469 109.601562 98.5625 119.867188 76.757812 C 113.1875 92.039062 111.226562 109.507812 111.089844 124.085938 C 108.871094 139.550781 109.003906 155.5625 111.113281 170.203125 C 112.855469 182.378906 116.277344 193.992188 122.101562 204.84375 C 123.730469 207.878906 125.40625 210.820312 127.039062 213.734375 C 130.542969 228.609375 134.933594 238.335938 138.347656 244.246094 C 138.835938 249.59375 138.101562 253.640625 136.488281 256.71875 L 108.582031 258.640625 M 138.183594 242.753906 C 135.160156 236.542969 132.867188 229.296875 131.167969 221.425781 C 134.511719 228.058594 137.210938 234.894531 138.183594 242.753906 " fill-opacity="1" fill-rule="nonzero"/><path fill="rgb(16.859436%, 9.408569%, 6.669617%)" d="M 138.347656 244.246094 C 134.933594 238.335938 130.542969 228.609375 127.039062 213.734375 C 128.46875 216.296875 129.871094 218.847656 131.167969 221.425781 C 132.867188 229.296875 135.160156 236.542969 138.183594 242.753906 C 138.238281 243.183594 138.285156 243.617188 138.324219 244.054688 C 138.332031 244.117188 138.339844 244.179688 138.347656 244.246094 " fill-opacity="1" fill-rule="nonzero"/><path fill="rgb(16.468811%, 9.408569%, 6.669617%)" d="M 111.089844 124.085938 C 111.226562 109.507812 113.1875 92.039062 119.867188 76.757812 C 119.972656 76.542969 120.066406 76.335938 120.167969 76.128906 C 121.253906 73.683594 122.46875 71.304688 123.832031 69.003906 C 123.941406 68.777344 124.019531 68.652344 124.019531 68.652344 L 124.019531 68.667969 C 130.804688 57.222656 140.949219 47.773438 155.929688 42.875 C 155.050781 44.78125 154.351562 46.851562 153.867188 49.113281 C 148.722656 52.824219 143.699219 56.691406 139.273438 61.414062 C 138.644531 62.082031 138.03125 62.753906 137.425781 63.4375 C 140.3125 58.710938 143.390625 54.339844 146.042969 52.027344 C 146.933594 51.324219 147.445312 50.980469 147.445312 50.980469 C 146.996094 51.253906 146.523438 51.605469 146.042969 52.027344 C 141.175781 55.851562 124.949219 70.175781 118.179688 95.980469 C 114.820312 104.8125 112.484375 114.339844 111.089844 124.085938 " fill-opacity="1" fill-rule="nonzero"/><path fill="rgb(13.729858%, 7.449341%, 4.708862%)" d="M 153.867188 49.113281 C 154.351562 46.851562 155.050781 44.78125 155.929688 42.875 C 159.015625 41.867188 162.304688 41.050781 165.816406 40.449219 C 161.902344 43.460938 157.84375 46.238281 153.867188 49.113281 " fill-opacity="1" fill-rule="nonzero"/><path fill="rgb(30.979919%, 20.779419%, 15.689087%)" d="M 122.949219 136.890625 C 120.375 108.789062 128.550781 88.847656 128.550781 88.847656 C 116.421875 103.148438 115.398438 126.710938 115.398438 126.710938 C 114.644531 115.085938 115.851562 104.851562 118.179688 95.980469 C 118.523438 95.078125 118.875 94.1875 119.242188 93.304688 C 123.707031 82.421875 129.652344 72.253906 137.425781 63.4375 C 131.984375 72.355469 127.207031 82.535156 127.207031 82.535156 C 136.105469 75.164062 143.546875 73.375 148.671875 73.375 C 153.503906 73.375 156.277344 74.964844 156.277344 74.964844 C 125.511719 87.582031 122.949219 136.890625 122.949219 136.890625 " fill-opacity="1" fill-rule="nonzero"/><path fill="rgb(26.269531%, 17.248535%, 12.939453%)" d="M 118.179688 95.980469 C 124.949219 70.175781 141.175781 55.851562 146.042969 52.027344 C 143.390625 54.339844 140.3125 58.710938 137.425781 63.4375 C 129.652344 72.253906 123.707031 82.421875 119.242188 93.304688 C 118.875 94.1875 118.523438 95.078125 118.179688 95.980469 M 146.042969 52.027344 C 146.523438 51.605469 146.996094 51.253906 147.445312 50.980469 C 147.445312 50.980469 146.933594 51.324219 146.042969 52.027344 " fill-opacity="1" fill-rule="nonzero"/><path fill="rgb(30.979919%, 20.779419%, 15.689087%)" d="M 228.757812 130.085938 C 179.03125 118.722656 167.03125 77.484375 167.03125 77.484375 C 183.253906 99.773438 192.757812 101.46875 192.757812 101.46875 C 181.222656 85.890625 195.894531 72.851562 195.894531 72.851562 C 196.726562 87.152344 228.757812 111.980469 228.757812 111.980469 C 209.800781 111.152344 197.894531 97.808594 197.894531 97.808594 C 204.535156 118.148438 228.757812 130.085938 228.757812 130.085938 " fill-opacity="1" fill-rule="nonzero"/><path fill="rgb(13.729858%, 12.159729%, 12.548828%)" d="M 184.824219 159.742188 C 181.0625 170.507812 171.382812 178.449219 159.335938 177.472656 C 147.289062 176.515625 139.605469 166.992188 139.109375 156.144531 C 138.261719 137.691406 150.40625 138.21875 162.488281 138.3125 C 192.375 138.554688 187.0625 150.152344 184.824219 159.742188 M 162.5 135.210938 C 148.519531 135.085938 134.441406 134.492188 135.414062 155.871094 C 136.007812 168.429688 144.90625 179.472656 158.855469 180.589844 C 172.792969 181.710938 184.019531 172.503906 188.390625 160.027344 C 190.96875 148.90625 197.125 135.5 162.5 135.210938 " fill-opacity="1" fill-rule="nonzero"/><path fill="rgb(13.729858%, 12.159729%, 12.548828%)" d="M 229.304688 139.144531 C 241.382812 138.808594 253.527344 138.058594 253.03125 156.527344 C 252.742188 167.359375 245.238281 177.042969 233.222656 178.242188 C 221.207031 179.4375 211.351562 171.6875 207.398438 161.003906 C 204.949219 151.449219 199.417969 139.960938 229.304688 139.144531 M 203.847656 161.371094 C 208.421875 173.753906 219.832031 182.730469 233.765625 181.339844 C 247.6875 179.953125 256.375 168.734375 256.710938 156.175781 C 257.273438 134.78125 243.222656 135.660156 229.238281 136.046875 C 194.617188 136.988281 201.03125 150.296875 203.847656 161.371094 " fill-opacity="1" fill-rule="nonzero"/><path fill="rgb(13.729858%, 12.159729%, 12.548828%)" d="M 189.84375 149.753906 C 189.84375 149.753906 197.304688 144.878906 204.328125 149.945312 C 204.328125 149.945312 202.648438 145.132812 205.765625 141.921875 C 205.765625 141.921875 198.136719 138.183594 188.339844 141.71875 C 188.339844 141.71875 190.3125 146.496094 189.84375 149.753906 " fill-opacity="1" fill-rule="nonzero"/><path fill="rgb(13.729858%, 12.159729%, 12.548828%)" d="M 142.792969 137.785156 L 128.425781 139.371094 L 127.097656 153.011719 L 137.429688 159.832031 C 137.429688 159.832031 135.1875 146.554688 142.792969 137.785156 " fill-opacity="1" fill-rule="nonzero"/><path fill="rgb(13.729858%, 12.159729%, 12.548828%)" d="M 250.949219 139.449219 L 266.277344 140.757812 L 266.277344 155.058594 L 255.75 161.621094 C 255.75 161.621094 258.324219 148.410156 250.949219 139.449219 " fill-opacity="1" fill-rule="nonzero"/><path fill="rgb(94.119263%, 74.119568%, 65.098572%)" d="M 230.78125 178.363281 C 219.882812 178.363281 211.078125 170.960938 207.398438 161.003906 C 206.554688 157.710938 205.34375 154.1875 205.34375 150.945312 C 205.34375 146.335938 207.796875 142.308594 217.261719 140.355469 C 227.210938 144.097656 238.824219 147.183594 252.359375 149.234375 C 252.542969 152.464844 252.699219 155.785156 252.816406 159.15625 C 251.488281 168.886719 244.257812 177.140625 233.222656 178.242188 C 232.398438 178.324219 231.585938 178.363281 230.78125 178.363281 " fill-opacity="1" fill-rule="nonzero"/><path fill="rgb(32.159424%, 21.958923%, 17.649841%)" d="M 252.816406 159.15625 C 252.699219 155.785156 252.542969 152.464844 252.359375 149.234375 C 252.371094 149.234375 252.382812 149.238281 252.394531 149.238281 C 252.816406 150.996094 253.046875 153.050781 253.046875 155.449219 C 253.046875 155.804688 253.039062 156.160156 253.03125 156.527344 C 253.003906 157.410156 252.9375 158.289062 252.816406 159.15625 " fill-opacity="1" fill-rule="nonzero"/><path fill="rgb(74.508667%, 58.428955%, 51.368713%)" d="M 252.359375 149.234375 C 238.824219 147.183594 227.210938 144.097656 217.261719 140.355469 C 220.433594 139.703125 224.390625 139.277344 229.304688 139.144531 C 231.15625 139.09375 233.015625 139.03125 234.828125 139.03125 C 235.453125 139.03125 236.070312 139.039062 236.6875 139.054688 C 237.683594 139.304688 238.695312 139.546875 239.71875 139.785156 C 239.71875 139.785156 239.527344 139.578125 239.21875 139.199219 C 241.367188 139.386719 243.386719 139.769531 245.179688 140.484375 C 246.820312 142.136719 248.679688 143.730469 250.785156 145.15625 C 251.441406 146.253906 251.96875 147.542969 252.351562 149.0625 C 252.351562 149.117188 252.355469 149.175781 252.359375 149.234375 " fill-opacity="1" fill-rule="nonzero"/><path fill="rgb(27.839661%, 19.219971%, 14.898682%)" d="M 252.394531 149.238281 C 252.382812 149.238281 252.371094 149.234375 252.359375 149.234375 C 252.355469 149.175781 252.351562 149.117188 252.351562 149.0625 C 252.363281 149.121094 252.378906 149.179688 252.394531 149.238281 " fill-opacity="1" fill-rule="nonzero"/><path fill="rgb(31.759644%, 21.958923%, 17.248535%)" d="M 250.785156 145.15625 C 248.679688 143.730469 246.820312 142.136719 245.179688 140.484375 C 247.480469 141.394531 249.414062 142.855469 250.785156 145.15625 M 239.71875 139.785156 C 238.695312 139.546875 237.683594 139.304688 236.6875 139.054688 C 237.542969 139.082031 238.390625 139.125 239.21875 139.199219 C 239.527344 139.578125 239.71875 139.785156 239.71875 139.785156 " fill-opacity="1" fill-rule="nonzero"/><path fill="rgb(30.979919%, 29.798889%, 29.798889%)" d="M 230.78125 178.363281 C 219.882812 178.363281 211.078125 170.960938 207.398438 161.003906 C 206.554688 157.710938 205.34375 154.1875 205.34375 150.945312 C 205.34375 154.1875 206.554688 157.710938 207.398438 161.003906 C 211.078125 170.960938 219.882812 178.363281 230.78125 178.363281 C 231.585938 178.363281 232.398438 178.324219 233.222656 178.242188 C 244.257812 177.140625 251.488281 168.886719 252.816406 159.15625 C 252.9375 158.289062 253.003906 157.410156 253.03125 156.527344 C 253.039062 156.160156 253.046875 155.804688 253.046875 155.449219 C 253.046875 155.804688 253.039062 156.160156 253.03125 156.527344 C 252.742188 167.359375 245.238281 177.042969 233.222656 178.242188 C 232.398438 178.324219 231.585938 178.363281 230.78125 178.363281 " fill-opacity="1" fill-rule="nonzero"/><path fill="rgb(94.119263%, 74.119568%, 65.098572%)" d="M 161.324219 177.445312 C 160.667969 177.445312 160.007812 177.417969 159.335938 177.359375 C 147.289062 176.40625 139.605469 166.878906 139.109375 156.03125 C 139.085938 155.441406 139.066406 154.863281 139.066406 154.308594 C 139.089844 139.371094 148.609375 138.289062 159.023438 138.289062 C 160.167969 138.289062 161.328125 138.304688 162.488281 138.3125 C 182.292969 138.472656 186.640625 143.621094 186.671875 149.863281 C 186.65625 153.007812 185.570312 156.421875 184.824219 159.609375 C 181.273438 169.78125 172.441406 177.445312 161.324219 177.445312 " fill-opacity="1" fill-rule="nonzero"/><path fill="rgb(30.979919%, 29.798889%, 29.798889%)" d="M 139.066406 154.308594 C 139.046875 139.324219 148.507812 138.175781 158.902344 138.175781 C 160.089844 138.175781 161.285156 138.191406 162.488281 138.199219 C 182.425781 138.363281 186.699219 143.566406 186.671875 149.863281 C 186.640625 143.621094 182.292969 138.472656 162.488281 138.3125 C 161.328125 138.304688 160.167969 138.289062 159.023438 138.289062 C 148.609375 138.289062 139.089844 139.371094 139.066406 154.308594 " fill-opacity="1" fill-rule="nonzero"/><path fill="rgb(9.799194%, 11.759949%, 16.859436%)" d="M 247.878906 255.15625 C 242.839844 249.742188 234.246094 247.359375 222.296875 248.097656 L 222.230469 248.097656 L 222.230469 255.683594 L 222.410156 255.683594 L 222.644531 255.667969 C 232.050781 255.078125 238.839844 256.644531 242.230469 260.222656 C 245.125 263.257812 244.757812 266.898438 244.726562 267.058594 L 252.246094 268.066406 C 252.296875 267.761719 253.191406 260.894531 247.878906 255.15625 " fill-opacity="1" fill-rule="nonzero"/><path fill="rgb(9.799194%, 11.759949%, 16.859436%)" d="M 163.125 248.097656 L 162.921875 248.097656 C 161.574219 248.0625 151.910156 248.140625 142.453125 257.109375 C 129.734375 269.136719 119.210938 302.929688 121.398438 338.832031 L 128.984375 338.832031 C 126.472656 299.941406 139.894531 270.097656 147.445312 262.8125 C 155.03125 255.511719 162.390625 255.667969 162.664062 255.667969 L 163.125 255.667969 L 163.125 248.097656 " fill-opacity="1" fill-rule="nonzero"/><path fill="rgb(74.119568%, 73.728943%, 73.728943%)" d="M 277.207031 307.785156 C 278.148438 307.785156 278.949219 308.539062 279 309.496094 C 279.03125 309.976562 279.523438 321.289062 277.667969 336.230469 C 277.605469 336.722656 277.191406 340.78125 275.046875 344.871094 C 272.003906 350.75 267.015625 353.867188 260.613281 353.867188 C 259.609375 353.867188 258.804688 353.050781 258.804688 352.0625 C 258.804688 351.070312 259.609375 350.273438 260.613281 350.273438 C 272.664062 350.273438 274.007812 336.464844 274.054688 335.878906 L 274.070312 335.8125 C 275.894531 321.175781 275.394531 309.785156 275.382812 309.671875 C 275.351562 308.667969 276.121094 307.835938 277.109375 307.785156 L 277.207031 307.785156 " fill-opacity="1" fill-rule="nonzero"/><path fill="rgb(56.469727%, 55.688477%, 55.688477%)" d="M 263.972656 353.558594 C 264.066406 353.390625 264.128906 353.207031 264.164062 353.011719 C 264.167969 353.011719 264.167969 353.007812 264.167969 353.007812 C 264.167969 353.007812 264.167969 353.007812 264.167969 353.003906 C 264.226562 352.695312 264.226562 352.351562 264.226562 351.976562 C 264.226562 351.976562 264.226562 351.972656 264.226562 351.96875 C 264.226562 351.964844 264.226562 351.960938 264.226562 351.957031 C 264.226562 351.949219 264.226562 351.941406 264.226562 351.933594 C 264.226562 351.929688 264.226562 351.929688 264.226562 351.925781 C 264.226562 351.925781 264.226562 351.921875 264.226562 351.921875 C 264.226562 351.917969 264.226562 351.914062 264.226562 351.910156 C 264.226562 351.90625 264.226562 351.90625 264.226562 351.90625 C 264.226562 351.902344 264.226562 351.898438 264.226562 351.894531 C 264.226562 351.890625 264.226562 351.886719 264.226562 351.882812 C 264.226562 351.882812 264.226562 351.878906 264.226562 351.875 C 264.226562 351.875 264.226562 351.871094 264.226562 351.867188 C 264.222656 351.671875 264.21875 351.476562 264.203125 351.292969 C 268.328125 350.429688 271.578125 347.847656 273.734375 343.675781 C 275.621094 340.0625 275.988281 336.484375 276.039062 336.050781 C 277.042969 328.019531 277.265625 321.175781 277.289062 316.957031 C 277.933594 316.9375 278.539062 316.769531 279.0625 316.484375 C 278.984375 321.296875 278.660156 328.246094 277.667969 336.230469 C 277.605469 336.722656 277.191406 340.78125 275.046875 344.871094 C 272.5625 349.679688 268.773438 352.636719 263.972656 353.558594 " fill-opacity="1" fill-rule="nonzero"/><path fill="rgb(74.119568%, 73.728943%, 73.728943%)" d="M 221.160156 307.785156 C 220.199219 307.785156 219.398438 308.539062 219.351562 309.496094 C 219.335938 309.976562 218.839844 321.289062 220.695312 336.230469 C 220.742188 336.722656 221.171875 340.78125 223.289062 344.871094 C 226.339844 350.75 231.335938 353.867188 237.734375 353.867188 C 238.746094 353.867188 239.558594 353.050781 239.558594 352.0625 C 239.558594 351.070312 238.746094 350.273438 237.734375 350.273438 C 225.6875 350.273438 224.34375 336.464844 224.292969 335.878906 L 224.277344 335.8125 C 222.453125 321.175781 222.949219 309.785156 222.964844 309.671875 C 223.015625 308.667969 222.230469 307.835938 221.238281 307.785156 L 221.160156 307.785156 " fill-opacity="1" fill-rule="nonzero"/><path fill="rgb(56.469727%, 55.688477%, 55.688477%)" d="M 236.277344 353.8125 C 230.578125 353.371094 226.109375 350.300781 223.289062 344.871094 C 221.171875 340.78125 220.742188 336.722656 220.695312 336.230469 C 219.703125 328.257812 219.386719 321.316406 219.300781 316.507812 C 219.820312 316.78125 220.425781 316.941406 221.070312 316.957031 C 221.089844 321.175781 221.320312 328.019531 222.328125 336.050781 C 222.355469 336.484375 222.746094 340.0625 224.617188 343.675781 C 227.058594 348.410156 230.933594 351.097656 235.863281 351.546875 C 235.859375 351.652344 235.851562 351.757812 235.847656 351.867188 C 235.847656 351.878906 235.847656 351.894531 235.847656 351.902344 C 235.847656 351.910156 235.847656 351.917969 235.847656 351.921875 C 235.847656 351.921875 235.847656 351.921875 235.847656 351.925781 C 235.847656 351.945312 235.847656 351.960938 235.847656 351.980469 C 235.847656 351.980469 235.847656 351.980469 235.847656 351.984375 C 235.847656 352.359375 235.851562 352.703125 235.914062 353.011719 C 235.96875 353.308594 236.074219 353.578125 236.277344 353.8125 " fill-opacity="1" fill-rule="nonzero"/><path fill="rgb(9.799194%, 11.759949%, 16.859436%)" d="M 247.910156 265.351562 C 248.023438 265.351562 248.105469 265.367188 248.183594 265.367188 C 248.261719 265.367188 248.328125 265.367188 248.40625 265.367188 C 255.71875 265.367188 261.972656 267.652344 267.03125 272.15625 C 281.609375 285.226562 280.824219 312.726562 280.792969 313.890625 C 280.710938 315.632812 279.046875 317.007812 277.0625 316.957031 C 275.0625 316.894531 273.511719 315.441406 273.558594 313.699219 C 273.574219 313.347656 274.277344 287.6875 261.847656 276.585938 C 258.121094 273.242188 253.636719 271.644531 248.183594 271.679688 C 248.070312 271.679688 248.039062 271.695312 247.925781 271.679688 C 247.480469 271.664062 242.199219 271.644531 236.804688 276.183594 C 231.316406 280.800781 224.773438 291.074219 224.773438 313.796875 C 224.773438 315.535156 223.15625 316.957031 221.171875 316.957031 C 219.160156 316.957031 217.542969 315.535156 217.542969 313.796875 C 217.542969 293.566406 222.441406 279.300781 232.050781 271.40625 C 238.921875 265.75 246.019531 265.351562 247.910156 265.351562 " fill-opacity="1" fill-rule="nonzero"/><path fill="rgb(58.428955%, 57.649231%, 56.858826%)" d="M 279.0625 316.484375 C 280.058594 315.945312 280.738281 314.992188 280.792969 313.890625 C 280.796875 313.761719 280.804688 313.304688 280.804688 312.578125 C 280.804688 313.304688 280.796875 313.761719 280.792969 313.890625 C 280.738281 314.992188 280.058594 315.945312 279.0625 316.484375 " fill-opacity="1" fill-rule="nonzero"/><path fill="rgb(39.608765%, 38.42926%, 38.819885%)" d="M 277.289062 316.957031 C 277.933594 316.9375 278.539062 316.769531 279.0625 316.484375 C 278.539062 316.769531 277.933594 316.9375 277.289062 316.957031 " fill-opacity="1" fill-rule="nonzero"/><path fill="rgb(58.428955%, 57.649231%, 56.858826%)" d="M 275.429688 316.570312 C 274.359375 316.054688 273.625 315.074219 273.558594 313.9375 C 273.625 315.0625 274.355469 316.042969 275.429688 316.5625 C 275.429688 316.5625 275.429688 316.566406 275.429688 316.570312 " fill-opacity="1" fill-rule="nonzero"/><path fill="rgb(49.798584%, 49.01886%, 49.409485%)" d="M 277.0625 316.957031 C 276.46875 316.945312 275.914062 316.804688 275.429688 316.570312 C 275.429688 316.566406 275.429688 316.5625 275.429688 316.5625 C 275.914062 316.796875 276.46875 316.941406 277.0625 316.957031 " fill-opacity="1" fill-rule="nonzero"/><path fill="rgb(6.669617%, 7.449341%, 10.978699%)" d="M 277.164062 316.957031 C 277.128906 316.957031 277.09375 316.957031 277.0625 316.957031 C 276.46875 316.941406 275.914062 316.796875 275.429688 316.5625 C 274.355469 316.042969 273.625 315.0625 273.558594 313.9375 C 275.253906 313.9375 276.664062 312.769531 276.710938 311.273438 C 276.757812 310.265625 277.445312 286.296875 264.726562 274.921875 C 260.328125 270.972656 254.871094 268.992188 248.515625 268.992188 L 248.308594 268.992188 C 248.261719 268.980469 248.167969 268.980469 248.070312 268.980469 C 246.4375 268.980469 240.246094 269.347656 234.261719 274.25 C 225.878906 281.136719 221.621094 293.566406 221.621094 311.191406 C 221.621094 312.707031 223.046875 313.9375 224.757812 313.957031 C 224.664062 315.609375 223.113281 316.941406 221.207031 316.957031 C 221.203125 316.957031 221.199219 316.957031 221.195312 316.957031 C 221.191406 316.957031 221.1875 316.957031 221.1875 316.957031 C 221.183594 316.957031 221.179688 316.957031 221.171875 316.957031 C 221.140625 316.957031 221.105469 316.957031 221.070312 316.957031 C 220.425781 316.941406 219.820312 316.78125 219.300781 316.507812 C 218.246094 315.953125 217.542969 314.941406 217.542969 313.796875 C 217.542969 293.566406 222.441406 279.300781 232.050781 271.40625 C 238.921875 265.75 246.019531 265.351562 247.910156 265.351562 C 248.023438 265.351562 248.105469 265.367188 248.183594 265.367188 C 248.261719 265.367188 248.328125 265.367188 248.40625 265.367188 C 255.71875 265.367188 261.972656 267.652344 267.03125 272.15625 C 279.984375 283.773438 280.804688 306.78125 280.804688 312.578125 C 280.804688 313.304688 280.796875 313.761719 280.792969 313.890625 C 280.738281 314.992188 280.058594 315.945312 279.0625 316.484375 C 278.539062 316.769531 277.933594 316.9375 277.289062 316.957031 C 277.25 316.957031 277.207031 316.957031 277.167969 316.957031 C 277.167969 316.957031 277.167969 316.957031 277.164062 316.957031 " fill-opacity="1" fill-rule="nonzero"/><path fill="rgb(9.799194%, 11.759949%, 16.859436%)" d="M 253.496094 351.867188 C 253.496094 350.144531 254.902344 348.753906 256.597656 348.753906 L 262.421875 349.265625 C 264.226562 349.714844 264.183594 350.65625 264.226562 351.867188 C 264.226562 353.164062 264.226562 354.125 262.277344 354.570312 L 256.597656 354.96875 C 254.902344 354.96875 253.496094 353.578125 253.496094 351.867188 " fill-opacity="1" fill-rule="nonzero"/><path fill="rgb(25.489807%, 28.239441%, 37.249756%)" d="M 257.015625 354.1875 C 256.167969 354.1875 255.398438 353.851562 254.839844 353.308594 C 255.558594 352.269531 256.453125 351.867188 257.847656 351.867188 C 259.574219 351.867188 260.582031 352.300781 260.453125 353.945312 L 257.015625 354.1875 " fill-opacity="1" fill-rule="nonzero"/><path fill="rgb(30.589294%, 29.40979%, 29.798889%)" d="M 264.164062 353.011719 C 264.167969 353.011719 264.167969 353.007812 264.167969 353.007812 C 264.167969 353.007812 264.167969 353.011719 264.164062 353.011719 M 264.167969 353.003906 C 264.226562 352.695312 264.226562 352.347656 264.226562 351.976562 C 264.226562 352.351562 264.226562 352.695312 264.167969 353.003906 M 264.226562 351.957031 C 264.226562 351.949219 264.226562 351.941406 264.226562 351.933594 C 264.226562 351.941406 264.226562 351.949219 264.226562 351.957031 M 264.226562 351.925781 C 264.226562 351.925781 264.226562 351.921875 264.226562 351.921875 C 264.226562 351.921875 264.226562 351.925781 264.226562 351.925781 M 264.226562 351.910156 C 264.226562 351.90625 264.226562 351.90625 264.226562 351.90625 C 264.226562 351.90625 264.226562 351.90625 264.226562 351.910156 " fill-opacity="1" fill-rule="nonzero"/><path fill="rgb(42.749023%, 41.958618%, 41.569519%)" d="M 254.613281 349.480469 C 255.140625 349.039062 255.8125 348.765625 256.546875 348.753906 C 255.816406 348.765625 255.140625 349.039062 254.613281 349.480469 M 256.546875 348.753906 C 256.550781 348.753906 256.554688 348.753906 256.558594 348.753906 C 256.554688 348.753906 256.550781 348.753906 256.546875 348.753906 M 256.5625 348.753906 C 256.5625 348.753906 256.566406 348.753906 256.566406 348.753906 C 256.566406 348.753906 256.5625 348.753906 256.5625 348.753906 M 256.566406 348.753906 C 256.570312 348.753906 256.574219 348.753906 256.574219 348.753906 C 256.574219 348.753906 256.570312 348.753906 256.566406 348.753906 M 256.578125 348.753906 C 256.582031 348.753906 256.582031 348.753906 256.585938 348.753906 C 256.582031 348.753906 256.582031 348.753906 256.578125 348.753906 M 256.589844 348.753906 C 256.59375 348.753906 256.59375 348.753906 256.597656 348.753906 C 256.59375 348.753906 256.59375 348.753906 256.589844 348.753906 " fill-opacity="1" fill-rule="nonzero"/><path fill="rgb(5.099487%, 5.879211%, 7.839966%)" d="M 262.628906 354.472656 C 262.628906 352.316406 261.625 350.558594 259.09375 350.191406 C 258.546875 350.113281 258.011719 350.074219 257.5 350.074219 C 256.007812 350.074219 254.664062 350.425781 253.558594 351.28125 C 253.695312 350.558594 254.078125 349.933594 254.613281 349.480469 C 255.140625 349.039062 255.816406 348.765625 256.546875 348.753906 C 256.550781 348.753906 256.554688 348.753906 256.558594 348.753906 C 256.558594 348.753906 256.558594 348.753906 256.5625 348.753906 C 256.5625 348.753906 256.566406 348.753906 256.566406 348.753906 C 256.570312 348.753906 256.574219 348.753906 256.574219 348.753906 C 256.578125 348.753906 256.578125 348.753906 256.578125 348.753906 C 256.582031 348.753906 256.582031 348.753906 256.585938 348.753906 C 256.585938 348.753906 256.589844 348.753906 256.589844 348.753906 C 256.59375 348.753906 256.59375 348.753906 256.597656 348.753906 L 262.421875 349.265625 C 264.226562 349.714844 264.183594 350.65625 264.226562 351.867188 C 264.226562 351.871094 264.226562 351.875 264.226562 351.875 C 264.226562 351.878906 264.226562 351.882812 264.226562 351.882812 C 264.226562 351.886719 264.226562 351.890625 264.226562 351.894531 C 264.226562 351.898438 264.226562 351.902344 264.226562 351.90625 C 264.226562 351.90625 264.226562 351.90625 264.226562 351.910156 C 264.226562 351.914062 264.226562 351.917969 264.226562 351.921875 C 264.226562 351.921875 264.226562 351.925781 264.226562 351.925781 C 264.226562 351.929688 264.226562 351.929688 264.226562 351.933594 C 264.226562 351.941406 264.226562 351.949219 264.226562 351.957031 C 264.226562 351.960938 264.226562 351.964844 264.226562 351.96875 C 264.226562 351.972656 264.226562 351.976562 264.226562 351.976562 C 264.226562 352.347656 264.226562 352.695312 264.167969 353.003906 C 264.167969 353.007812 264.167969 353.007812 264.167969 353.007812 C 264.167969 353.007812 264.167969 353.011719 264.164062 353.011719 C 264.039062 353.65625 263.679688 354.160156 262.628906 354.472656 " fill-opacity="1" fill-rule="nonzero"/><path fill="rgb(9.799194%, 11.759949%, 16.859436%)" d="M 246.582031 351.867188 C 246.582031 350.144531 245.191406 348.753906 243.476562 348.753906 L 237.652344 349.265625 C 235.847656 349.714844 235.910156 350.65625 235.847656 351.867188 C 235.847656 353.164062 235.847656 354.125 237.796875 354.570312 L 243.476562 354.96875 C 245.191406 354.96875 246.582031 353.578125 246.582031 351.867188 " fill-opacity="1" fill-rule="nonzero"/><path fill="rgb(25.489807%, 28.239441%, 37.249756%)" d="M 243.0625 354.1875 L 239.625 353.945312 C 239.496094 352.300781 240.488281 351.867188 242.246094 351.867188 C 243.621094 351.867188 244.519531 352.269531 245.238281 353.308594 C 244.679688 353.851562 243.925781 354.1875 243.0625 354.1875 " fill-opacity="1" fill-rule="nonzero"/><path fill="rgb(30.589294%, 29.40979%, 29.798889%)" d="M 235.914062 353.011719 C 235.851562 352.703125 235.847656 352.359375 235.847656 351.984375 C 235.847656 352.355469 235.851562 352.699219 235.914062 353.011719 M 235.847656 351.980469 C 235.847656 351.960938 235.847656 351.945312 235.847656 351.925781 C 235.847656 351.945312 235.847656 351.960938 235.847656 351.980469 M 235.847656 351.921875 C 235.847656 351.917969 235.847656 351.910156 235.847656 351.902344 C 235.847656 351.910156 235.847656 351.917969 235.847656 351.921875 " fill-opacity="1" fill-rule="nonzero"/><path fill="rgb(5.099487%, 5.879211%, 7.839966%)" d="M 237.449219 354.472656 C 236.398438 354.160156 236.039062 353.65625 235.914062 353.011719 C 235.851562 352.699219 235.847656 352.355469 235.847656 351.984375 C 235.847656 351.980469 235.847656 351.980469 235.847656 351.980469 C 235.847656 351.960938 235.847656 351.945312 235.847656 351.925781 C 235.847656 351.921875 235.847656 351.921875 235.847656 351.921875 C 235.847656 351.917969 235.847656 351.910156 235.847656 351.902344 C 235.847656 351.894531 235.847656 351.878906 235.847656 351.867188 C 235.910156 350.65625 235.847656 349.714844 237.652344 349.265625 L 243.476562 348.753906 C 243.480469 348.753906 243.484375 348.753906 243.488281 348.753906 C 243.488281 348.753906 243.492188 348.753906 243.492188 348.753906 C 243.496094 348.753906 243.496094 348.753906 243.5 348.753906 C 243.5 348.753906 243.503906 348.753906 243.503906 348.753906 C 243.507812 348.753906 243.511719 348.753906 243.511719 348.753906 C 243.511719 348.753906 243.511719 348.753906 243.515625 348.753906 C 243.515625 348.753906 243.519531 348.753906 243.523438 348.753906 C 245.007812 348.777344 246.234375 349.855469 246.519531 351.28125 C 245.414062 350.425781 244.070312 350.074219 242.578125 350.074219 C 242.0625 350.074219 241.527344 350.113281 240.984375 350.191406 C 238.441406 350.558594 237.449219 352.316406 237.449219 354.472656 " fill-opacity="1" fill-rule="nonzero"/><g clip-path="url(#clip-2)"><path fill="rgb(9.799194%, 11.759949%, 16.859436%)" d="M 108.871094 338.832031 C 108.871094 329.820312 116.183594 322.535156 125.207031 322.535156 C 134.214844 322.535156 141.527344 329.820312 141.527344 338.832031 C 141.527344 347.828125 134.214844 355.128906 125.207031 355.128906 C 116.183594 355.128906 108.871094 347.828125 108.871094 338.832031 " fill-opacity="1" fill-rule="nonzero"/></g><path fill="rgb(65.489197%, 64.709473%, 65.098572%)" d="M 113.351562 338.832031 C 113.351562 332.300781 118.648438 327.007812 125.207031 327.007812 C 131.738281 327.007812 137.03125 332.300781 137.03125 338.832031 C 137.03125 345.367188 131.738281 350.65625 125.207031 350.65625 C 118.648438 350.65625 113.351562 345.367188 113.351562 338.832031 " fill-opacity="1" fill-rule="nonzero"/><path fill="rgb(56.858826%, 56.079102%, 56.079102%)" d="M 115.238281 338.832031 C 115.238281 333.335938 119.703125 328.894531 125.207031 328.894531 C 130.695312 328.894531 135.140625 333.335938 135.140625 338.832031 C 135.140625 344.328125 130.695312 348.769531 125.207031 348.769531 C 119.703125 348.769531 115.238281 344.328125 115.238281 338.832031 " fill-opacity="1" fill-rule="nonzero"/></svg>