<?xml version="1.0" encoding="UTF-8"?><svg xmlns="http://www.w3.org/2000/svg" xmlns:xlink="http://www.w3.org/1999/xlink" contentScriptType="text/ecmascript" width="375" zoomAndPan="magnify" contentStyleType="text/css" viewBox="0 0 375 374.999991" height="374.999991" preserveAspectRatio="xMidYMid meet" version="1.0"><defs><clipPath id="clip-0"><path d="M 57 42 L 318 42 L 318 284.242188 L 57 284.242188 Z M 57 42 " clip-rule="nonzero"/></clipPath><clipPath id="clip-1"><path d="M 44 255 L 116 255 L 116 329 L 44 329 Z M 44 255 " clip-rule="nonzero"/></clipPath><clipPath id="clip-2"><path d="M 30.691406 272.9375 L 99.496094 208.160156 L 164.789062 277.511719 L 95.984375 342.289062 Z M 30.691406 272.9375 " clip-rule="nonzero"/></clipPath><clipPath id="clip-3"><path d="M 30.691406 272.9375 L 99.496094 208.160156 L 164.789062 277.511719 L 95.984375 342.289062 Z M 30.691406 272.9375 " clip-rule="nonzero"/></clipPath><clipPath id="clip-4"><path d="M 43 255 L 93 255 L 93 304 L 43 304 Z M 43 255 " clip-rule="nonzero"/></clipPath><clipPath id="clip-5"><path d="M 30.691406 272.9375 L 99.496094 208.160156 L 164.789062 277.511719 L 95.984375 342.289062 Z M 30.691406 272.9375 " clip-rule="nonzero"/></clipPath><clipPath id="clip-6"><path d="M 30.691406 272.9375 L 99.496094 208.160156 L 164.789062 277.511719 L 95.984375 342.289062 Z M 30.691406 272.9375 " clip-rule="nonzero"/></clipPath><clipPath id="clip-7"><path d="M 66 279 L 116 279 L 116 329 L 66 329 Z M 66 279 " clip-rule="nonzero"/></clipPath><clipPath id="clip-8"><path d="M 30.691406 272.9375 L 99.496094 208.160156 L 164.789062 277.511719 L 95.984375 342.289062 Z M 30.691406 272.9375 " clip-rule="nonzero"/></clipPath><clipPath id="clip-9"><path d="M 30.691406 272.9375 L 99.496094 208.160156 L 164.789062 277.511719 L 95.984375 342.289062 Z M 30.691406 272.9375 " clip-rule="nonzero"/></clipPath><clipPath id="clip-10"><path d="M 67 236 L 148 236 L 148 298 L 67 298 Z M 67 236 " clip-rule="nonzero"/></clipPath><clipPath id="clip-11"><path d="M 30.691406 272.9375 L 99.496094 208.160156 L 164.789062 277.511719 L 95.984375 342.289062 Z M 30.691406 272.9375 " clip-rule="nonzero"/></clipPath><clipPath id="clip-12"><path d="M 30.691406 272.9375 L 99.496094 208.160156 L 164.789062 277.511719 L 95.984375 342.289062 Z M 30.691406 272.9375 " clip-rule="nonzero"/></clipPath><clipPath id="clip-13"><path d="M 99 251 L 149 251 L 149 299 L 99 299 Z M 99 251 " clip-rule="nonzero"/></clipPath><clipPath id="clip-14"><path d="M 30.691406 272.9375 L 99.496094 208.160156 L 164.789062 277.511719 L 95.984375 342.289062 Z M 30.691406 272.9375 " clip-rule="nonzero"/></clipPath><clipPath id="clip-15"><path d="M 30.691406 272.9375 L 99.496094 208.160156 L 164.789062 277.511719 L 95.984375 342.289062 Z M 30.691406 272.9375 " clip-rule="nonzero"/></clipPath><clipPath id="clip-16"><path d="M 67 236 L 117 236 L 117 284 L 67 284 Z M 67 236 " clip-rule="nonzero"/></clipPath><clipPath id="clip-17"><path d="M 30.691406 272.9375 L 99.496094 208.160156 L 164.789062 277.511719 L 95.984375 342.289062 Z M 30.691406 272.9375 " clip-rule="nonzero"/></clipPath><clipPath id="clip-18"><path d="M 30.691406 272.9375 L 99.496094 208.160156 L 164.789062 277.511719 L 95.984375 342.289062 Z M 30.691406 272.9375 " clip-rule="nonzero"/></clipPath><clipPath id="clip-19"><path d="M 73 246 L 96 246 L 96 276 L 73 276 Z M 73 246 " clip-rule="nonzero"/></clipPath><clipPath id="clip-20"><path d="M 30.691406 272.9375 L 99.496094 208.160156 L 164.789062 277.511719 L 95.984375 342.289062 Z M 30.691406 272.9375 " clip-rule="nonzero"/></clipPath><clipPath id="clip-21"><path d="M 30.691406 272.9375 L 99.496094 208.160156 L 164.789062 277.511719 L 95.984375 342.289062 Z M 30.691406 272.9375 " clip-rule="nonzero"/></clipPath><clipPath id="clip-22"><path d="M 93 288 L 109 288 L 109 322 L 93 322 Z M 93 288 " clip-rule="nonzero"/></clipPath><clipPath id="clip-23"><path d="M 30.691406 272.9375 L 99.496094 208.160156 L 164.789062 277.511719 L 95.984375 342.289062 Z M 30.691406 272.9375 " clip-rule="nonzero"/></clipPath><clipPath id="clip-24"><path d="M 30.691406 272.9375 L 99.496094 208.160156 L 164.789062 277.511719 L 95.984375 342.289062 Z M 30.691406 272.9375 " clip-rule="nonzero"/></clipPath></defs><rect x="-37.5" width="450" fill="rgb(100%, 100%, 100%)" y="-37.499999" height="449.999989" fill-opacity="1"/><rect x="-37.5" width="450" fill="rgb(100%, 100%, 100%)" y="-37.499999" height="449.999989" fill-opacity="1"/><rect x="-37.5" width="450" fill="rgb(96.078491%, 96.078491%, 93.728638%)" y="-37.499999" height="449.999989" fill-opacity="1"/><g clip-path="url(#clip-0)"><path fill="rgb(11.369324%, 44.309998%, 31.759644%)" d="M 75.878906 144.675781 L 61.910156 144.675781 C 59.910156 144.675781 58.140625 143.386719 57.488281 141.480469 C 56.835938 139.574219 57.535156 137.480469 59.117188 136.285156 L 184.808594 43.253906 C 186.484375 42.035156 188.71875 42.035156 190.394531 43.253906 L 316.085938 136.285156 C 317.667969 137.480469 318.367188 139.574219 317.714844 141.480469 C 317.066406 143.386719 315.296875 144.675781 313.292969 144.675781 L 299.328125 144.675781 L 299.328125 279.570312 C 299.328125 282.136719 297.234375 284.222656 294.671875 284.222656 L 80.53125 284.222656 C 77.972656 284.222656 75.878906 282.136719 75.878906 279.570312 Z M 299.1875 135.375 L 187.601562 52.78125 L 76.015625 135.375 L 80.53125 135.375 C 83.09375 135.375 85.1875 137.457031 85.1875 140.027344 L 85.1875 274.917969 L 290.019531 274.917969 L 290.019531 140.027344 C 290.019531 137.457031 292.113281 135.375 294.671875 135.375 Z M 187.601562 114.441406 C 150.359375 114.441406 120.101562 144.664062 120.101562 181.890625 C 120.101562 219.113281 150.359375 249.335938 187.601562 249.335938 C 224.84375 249.335938 255.105469 219.113281 255.105469 181.890625 C 255.105469 144.664062 224.84375 114.441406 187.601562 114.441406 Z M 187.601562 123.746094 C 219.722656 123.746094 245.792969 149.796875 245.792969 181.890625 C 245.792969 213.980469 219.722656 240.03125 187.601562 240.03125 C 155.480469 240.03125 129.414062 213.980469 129.414062 181.890625 C 129.414062 149.796875 155.480469 123.746094 187.601562 123.746094 Z M 168.703125 162.984375 L 168.703125 139.128906 C 168.703125 136.558594 170.75 134.476562 173.359375 134.476562 L 201.847656 134.476562 C 204.453125 134.476562 206.503906 136.558594 206.503906 139.128906 L 206.503906 162.984375 L 230.382812 162.984375 C 232.992188 162.984375 235.039062 165.0625 235.039062 167.636719 L 235.039062 196.140625 C 235.039062 198.707031 232.992188 200.792969 230.382812 200.792969 L 206.503906 200.792969 L 206.503906 224.644531 C 206.503906 227.21875 204.453125 229.296875 201.847656 229.296875 L 173.359375 229.296875 C 170.75 229.296875 168.703125 227.21875 168.703125 224.644531 L 168.703125 200.792969 L 144.820312 200.792969 C 142.261719 200.792969 140.167969 198.707031 140.167969 196.140625 L 140.167969 167.636719 C 140.167969 165.0625 142.261719 162.984375 144.820312 162.984375 Z M 197.191406 143.777344 L 178.011719 143.777344 L 178.011719 167.636719 C 178.011719 170.203125 175.917969 172.289062 173.359375 172.289062 L 149.476562 172.289062 L 149.476562 191.488281 L 173.359375 191.488281 C 175.917969 191.488281 178.011719 193.574219 178.011719 196.140625 L 178.011719 219.992188 L 197.191406 219.992188 L 197.191406 196.140625 C 197.191406 193.574219 199.289062 191.488281 201.847656 191.488281 L 225.730469 191.488281 L 225.730469 172.289062 L 201.847656 172.289062 C 199.289062 172.289062 197.191406 170.203125 197.191406 167.636719 Z M 197.191406 143.777344 " fill-opacity="1" fill-rule="evenodd"/></g><g clip-path="url(#clip-1)"><g clip-path="url(#clip-2)"><g clip-path="url(#clip-3)"><path fill="rgb(100%, 100%, 100%)" d="M 93.65625 279.089844 L 93.628906 279.113281 C 83.917969 271.449219 69.898438 248.53125 54.429688 258.164062 C 30.726562 272.921875 54.035156 293.046875 66.207031 304.933594 L 66.230469 304.910156 C 75.945312 312.574219 89.960938 335.492188 105.429688 325.863281 C 129.132812 311.101562 105.824219 290.976562 93.65625 279.089844 Z M 93.65625 279.089844 " fill-opacity="1" fill-rule="nonzero"/></g></g></g><g clip-path="url(#clip-4)"><g clip-path="url(#clip-5)"><g clip-path="url(#clip-6)"><path fill="rgb(96.078491%, 96.078491%, 93.728638%)" d="M 92.398438 278.136719 C 92.226562 278.300781 91.953125 278.304688 91.777344 278.144531 C 89.859375 276.425781 87.800781 274.257812 85.625 271.960938 C 76.933594 262.8125 66.121094 251.421875 54.671875 258.550781 C 48.628906 262.316406 45.289062 266.722656 44.746094 271.652344 C 43.5625 282.441406 55.527344 293.984375 64.261719 302.410156 L 65.082031 303.199219 C 65.261719 303.375 65.265625 303.664062 65.089844 303.847656 C 64.910156 304.03125 64.621094 304.035156 64.441406 303.859375 L 63.621094 303.070312 C 54.75 294.511719 42.601562 282.792969 43.835938 271.558594 C 44.410156 266.332031 47.894531 261.695312 54.191406 257.773438 C 66.277344 250.25 77.375 261.9375 86.292969 271.328125 C 88.457031 273.609375 90.503906 275.765625 92.394531 277.460938 C 92.582031 277.632812 92.59375 277.921875 92.425781 278.109375 C 92.414062 278.121094 92.40625 278.128906 92.398438 278.136719 Z M 92.398438 278.136719 " fill-opacity="1" fill-rule="nonzero"/></g></g></g><g clip-path="url(#clip-7)"><g clip-path="url(#clip-8)"><g clip-path="url(#clip-9)"><path fill="rgb(94.119263%, 51.759338%, 52.549744%)" d="M 93.628906 279.113281 C 93.621094 279.109375 93.613281 279.101562 93.605469 279.09375 C 90.820312 285.5625 85.625 290.300781 80.246094 295.363281 C 76.304688 299.074219 71.964844 303.308594 66.804688 305.375 C 76.492188 313.457031 90.261719 335.304688 105.429688 325.863281 C 129.132812 311.101562 105.824219 290.976562 93.65625 279.089844 Z M 93.628906 279.113281 " fill-opacity="1" fill-rule="nonzero"/></g></g></g><g clip-path="url(#clip-10)"><g clip-path="url(#clip-11)"><g clip-path="url(#clip-12)"><path fill="rgb(100%, 100%, 100%)" d="M 97.78125 283.027344 L 97.800781 282.996094 C 109.183594 287.878906 128.671875 306.363281 141.152344 293.078125 C 160.28125 272.726562 132.519531 259.339844 117.667969 251.019531 L 117.652344 251.046875 C 106.269531 246.164062 86.78125 227.683594 74.300781 240.964844 C 55.171875 261.320312 82.933594 274.707031 97.78125 283.027344 Z M 97.78125 283.027344 " fill-opacity="1" fill-rule="nonzero"/></g></g></g><g clip-path="url(#clip-13)"><g clip-path="url(#clip-14)"><g clip-path="url(#clip-15)"><path fill="rgb(96.078491%, 96.078491%, 93.728638%)" d="M 140.691406 294.191406 C 130.992188 303.320312 117.675781 295.183594 106.914062 288.609375 C 104.230469 286.96875 101.691406 285.417969 99.425781 284.269531 C 99.199219 284.15625 99.113281 283.878906 99.226562 283.65625 C 99.34375 283.425781 99.621094 283.335938 99.84375 283.453125 C 102.144531 284.617188 104.695312 286.175781 107.398438 287.824219 C 118.171875 294.40625 131.582031 302.59375 140.820312 292.765625 C 145.695312 287.578125 147.789062 282.464844 147.039062 277.570312 C 145.398438 266.859375 130.835938 258.820312 120.203125 252.949219 L 119.207031 252.402344 C 118.988281 252.277344 118.910156 252 119.03125 251.777344 C 119.15625 251.554688 119.4375 251.476562 119.65625 251.597656 L 120.648438 252.144531 C 131.449219 258.109375 146.238281 266.273438 147.945312 277.425781 C 148.742188 282.613281 146.570312 287.984375 141.488281 293.394531 C 141.222656 293.671875 140.957031 293.9375 140.691406 294.191406 Z M 140.691406 294.191406 " fill-opacity="1" fill-rule="nonzero"/></g></g></g><g clip-path="url(#clip-16)"><g clip-path="url(#clip-17)"><g clip-path="url(#clip-18)"><path fill="rgb(72.158813%, 88.238525%, 94.509888%)" d="M 97.800781 282.996094 C 97.8125 283 97.820312 283.003906 97.832031 283.011719 C 98.855469 276.054688 102.660156 270.144531 106.554688 263.871094 C 109.410156 259.277344 112.515625 254.074219 116.976562 250.746094 C 105.511719 245.457031 86.539062 227.941406 74.300781 240.964844 C 55.171875 261.320312 82.933594 274.707031 97.78125 283.027344 Z M 97.800781 282.996094 " fill-opacity="1" fill-rule="nonzero"/></g></g></g><g clip-path="url(#clip-19)"><g clip-path="url(#clip-20)"><g clip-path="url(#clip-21)"><path fill="rgb(96.078491%, 96.078491%, 93.728638%)" d="M 95.632812 275.515625 C 95.488281 275.652344 95.273438 275.683594 95.09375 275.585938 C 79.785156 267.035156 75.261719 259.683594 74.160156 255.019531 C 73.238281 251.117188 74.40625 248.273438 75.550781 246.578125 C 75.691406 246.363281 75.976562 246.308594 76.1875 246.449219 C 76.398438 246.589844 76.453125 246.875 76.308594 247.085938 C 75.269531 248.628906 74.207031 251.226562 75.050781 254.800781 C 76.109375 259.289062 80.523438 266.394531 95.542969 274.785156 C 95.765625 274.90625 95.84375 275.1875 95.71875 275.40625 C 95.695312 275.449219 95.664062 275.484375 95.632812 275.515625 Z M 95.632812 275.515625 " fill-opacity="1" fill-rule="nonzero"/></g></g></g><g clip-path="url(#clip-22)"><g clip-path="url(#clip-23)"><g clip-path="url(#clip-24)"><path fill="rgb(96.078491%, 96.078491%, 93.728638%)" d="M 104.480469 321.328125 C 104.296875 321.5 104.007812 321.496094 103.835938 321.3125 C 103.660156 321.128906 103.667969 320.839844 103.851562 320.664062 C 114.152344 310.832031 102.886719 299.007812 95.429688 291.183594 C 94.957031 290.691406 94.503906 290.210938 94.074219 289.753906 C 93.898438 289.570312 93.910156 289.28125 94.09375 289.105469 C 94.28125 288.929688 94.570312 288.9375 94.742188 289.121094 C 95.171875 289.578125 95.625 290.054688 96.097656 290.550781 C 99.890625 294.53125 104.613281 299.484375 107.148438 304.84375 C 110.164062 311.214844 109.265625 316.761719 104.484375 321.324219 C 104.484375 321.328125 104.480469 321.328125 104.480469 321.328125 Z M 104.480469 321.328125 " fill-opacity="1" fill-rule="nonzero"/></g></g></g></svg>