<?xml version="1.0" encoding="UTF-8"?><svg xmlns="http://www.w3.org/2000/svg" xmlns:xlink="http://www.w3.org/1999/xlink" contentScriptType="text/ecmascript" width="375" zoomAndPan="magnify" contentStyleType="text/css" viewBox="0 0 375 374.999991" height="374.999991" preserveAspectRatio="xMidYMid meet" version="1.0"><defs><clipPath id="clip-0"><path d="M 34.039062 18 L 331 18 L 331 343 L 34.039062 343 Z M 34.039062 18 " clip-rule="nonzero"/></clipPath><clipPath id="clip-1"><path d="M 204 207 L 358 207 L 358 347.953125 L 204 347.953125 Z M 204 207 " clip-rule="nonzero"/></clipPath></defs><rect x="-37.5" width="450" fill="rgb(100%, 100%, 100%)" y="-37.499999" height="449.999989" fill-opacity="1"/><rect x="-37.5" width="450" fill="rgb(100%, 100%, 100%)" y="-37.499999" height="449.999989" fill-opacity="1"/><rect x="-37.5" width="450" fill="rgb(18.03894%, 19.219971%, 22.349548%)" y="-37.499999" height="449.999989" fill-opacity="1"/><g clip-path="url(#clip-0)"><path fill="rgb(54.119873%, 63.529968%, 83.139038%)" d="M 317.15625 63.660156 C 311.628906 60.269531 303.765625 62.65625 299.015625 63.363281 C 294.511719 64.011719 289.957031 64.839844 285.300781 65.199219 C 263.746094 66.816406 237.957031 65.789062 217.660156 53.726562 C 209.929688 49.121094 203.761719 42.175781 198.085938 35.179688 C 194.21875 30.425781 190.660156 21.140625 184.945312 19.03125 C 178.769531 16.757812 175.71875 25.375 172.6875 29.644531 C 169.027344 34.820312 165.476562 40.257812 160.574219 44.363281 C 151.742188 51.765625 141.449219 57.464844 130.464844 60.75 C 112.132812 66.246094 94.40625 66.246094 76.570312 64.824219 C 69.058594 64.222656 62.34375 61.90625 55.339844 60.546875 C 41.707031 58.023438 43.082031 82.289062 41.871094 89.195312 C 39.984375 98.863281 38.34375 108.492188 37.132812 118.097656 C 34.925781 135.527344 34.078125 152.90625 35.898438 170.1875 C 38.742188 197.550781 49.15625 224.199219 67.332031 248.855469 C 81.886719 268.570312 100.121094 286.429688 118.882812 302.238281 C 132.570312 313.753906 146.738281 324.496094 161.328125 333.003906 C 167.75 336.746094 174.296875 340.128906 181.261719 341.710938 C 181.609375 341.789062 182.382812 342.125 182.71875 342.023438 C 188.878906 340.117188 194.601562 338.269531 200.53125 335.03125 C 214.28125 327.523438 227.578125 317.703125 240.484375 307.253906 C 258.996094 292.242188 277.121094 275.222656 292.257812 256.449219 C 310.933594 233.214844 323.316406 207.867188 327.957031 181.472656 C 331.417969 161.894531 331.066406 142.359375 328.882812 122.582031 C 327.328125 108.589844 323.6875 94.574219 322.742188 80.558594 C 322.441406 76.027344 323.421875 69.964844 319.492188 65.605469 C 318.777344 64.8125 317.992188 64.171875 317.15625 63.660156 Z M 317.15625 63.660156 " fill-opacity="1" fill-rule="nonzero"/></g><path fill="rgb(25.489807%, 26.269531%, 43.919373%)" d="M 182.28125 318.402344 C 176.726562 318.402344 139.277344 303.941406 103.871094 271.773438 C 80.421875 249.675781 64.710938 226.164062 55.8125 199.871094 C 44.132812 165.367188 44.910156 126.507812 58.121094 84.378906 C 58.144531 84.253906 58.183594 84.132812 58.234375 84.015625 C 58.496094 83.429688 59.113281 83.046875 59.75 83.046875 C 60.09375 83.046875 60.421875 83.128906 61.90625 83.503906 C 66.707031 84.71875 81.3125 88.414062 99.648438 88.414062 C 123.160156 88.414062 156.441406 82.125 181.476562 52.164062 C 181.785156 51.796875 182.246094 51.585938 182.722656 51.582031 C 183.203125 51.582031 183.65625 51.800781 183.964844 52.167969 C 207.800781 81.027344 242.792969 87.085938 267.953125 87.085938 C 283.601562 87.085938 296.148438 84.785156 300.871094 83.917969 C 302.46875 83.625 302.949219 83.539062 303.304688 83.539062 C 303.925781 83.539062 304.5625 83.914062 304.832031 84.472656 C 304.890625 84.59375 304.933594 84.722656 304.960938 84.855469 C 318.078125 127.121094 318.9375 166.039062 307.515625 200.523438 C 298.8125 226.816406 283.386719 250.261719 260.363281 272.199219 C 223.769531 305.824219 187.714844 318.394531 183.144531 318.394531 L 183.140625 318.394531 C 182.996094 318.394531 182.855469 318.386719 182.730469 318.367188 C 182.59375 318.390625 182.445312 318.402344 182.28125 318.402344 Z M 182.28125 315.164062 L 182.28125 316.773438 L 182.292969 315.164062 C 182.289062 315.164062 182.285156 315.164062 182.28125 315.164062 Z M 60.828125 86.570312 C 38.277344 159.652344 53.082031 219.464844 106.0625 269.394531 C 141.984375 302.027344 177.34375 314.769531 182.082031 315.15625 C 182.277344 315.070312 182.527344 315.042969 182.71875 315.023438 C 182.9375 315.023438 183.144531 315.066406 183.339844 315.148438 C 188.078125 314.757812 222.984375 302.148438 258.15625 269.832031 C 309.511719 220.894531 324.339844 159.367188 302.222656 86.964844 C 301.984375 87.007812 301.722656 87.054688 301.453125 87.105469 C 296.652344 87.984375 283.894531 90.324219 267.953125 90.324219 C 242.53125 90.324219 207.304688 84.269531 182.710938 55.703125 C 157.027344 85.367188 123.460938 91.652344 99.644531 91.652344 C 80.90625 91.652344 66.007812 87.878906 61.113281 86.640625 C 61.019531 86.617188 60.921875 86.59375 60.828125 86.570312 Z M 60.828125 86.570312 " fill-opacity="1" fill-rule="nonzero"/><path fill="rgb(100%, 100%, 100%)" d="M 248.871094 147.9375 C 239.429688 146.859375 229.933594 146.035156 220.421875 145.40625 C 220.566406 135.472656 220.671875 125.542969 220.742188 115.617188 C 220.789062 109.597656 218.453125 103.800781 214.222656 99.300781 C 209.824219 94.625 203.675781 91.8125 197.320312 91.636719 C 187.582031 91.371094 177.851562 91.371094 168.125 91.636719 C 161.773438 91.8125 155.625 94.617188 151.222656 99.292969 C 146.988281 103.796875 144.652344 109.59375 144.699219 115.589844 C 144.765625 125.527344 144.878906 135.464844 145.023438 145.40625 C 135.511719 146.035156 126.011719 146.855469 116.570312 147.9375 C 104.070312 149.398438 94.550781 160.503906 95.5625 172.664062 C 96.214844 180.628906 96.929688 188.601562 97.691406 196.589844 C 98.910156 208.996094 110.128906 218.546875 122.902344 217.523438 C 130.773438 216.886719 138.707031 216.40625 146.652344 216.011719 C 146.953125 225.648438 147.285156 235.289062 147.644531 244.933594 C 148.160156 257.53125 158.28125 267.671875 170.605469 267.785156 C 170.734375 267.785156 170.855469 267.785156 170.984375 267.785156 C 178.808594 267.710938 186.621094 267.710938 194.472656 267.785156 C 194.59375 267.785156 194.714844 267.785156 194.835938 267.785156 C 207.164062 267.671875 217.28125 257.53125 217.796875 244.910156 C 218.15625 235.273438 218.488281 225.640625 218.789062 216.011719 C 226.734375 216.40625 234.667969 216.886719 242.535156 217.523438 C 243.289062 217.589844 244.035156 217.609375 244.773438 217.597656 C 256.652344 217.363281 266.609375 208.277344 267.753906 196.5625 C 268.515625 188.589844 269.222656 180.632812 269.875 172.683594 C 270.886719 160.503906 261.367188 149.398438 248.871094 147.9375 Z M 248.871094 147.9375 " fill-opacity="1" fill-rule="nonzero"/><g clip-path="url(#clip-1)"><path fill="rgb(94.119263%, 51.759338%, 52.549744%)" d="M 276.941406 233.761719 C 266.707031 209.371094 251.3125 207.960938 235.839844 217.101562 C 220.75 226.253906 205.582031 245.953125 204.554688 264.050781 C 203.546875 286.09375 209.71875 292.335938 229.484375 303.433594 C 245.210938 312.167969 268.445312 326.71875 271.433594 347.585938 C 270.699219 328.820312 299.390625 319.40625 311.203125 314.128906 C 330.679688 305.65625 348.179688 303.667969 355.132812 281.507812 C 363.300781 256.539062 346.445312 229.78125 328.582031 216.179688 C 310.015625 202.726562 290.4375 202.429688 276.941406 233.761719 Z M 276.941406 233.761719 " fill-opacity="1" fill-rule="nonzero"/></g></svg>